<svg id="Layer_3" enable-background="new 0 0 64 64" height="512" viewBox="0 0 64 64" width="512" xmlns="http://www.w3.org/2000/svg"><path d="m44 62h-24v-4c0-1.105.895-2 2-2h20c1.105 0 2 .895 2 2z" fill="#737373"/><path d="m39 56h-17c-1.105 0-2 .895-2 2v4h21v-4c0-1.105-.895-2-2-2z" fill="#999"/><path d="m26 48h12v8h-12z" fill="#565656"/><path d="m26 48h9v8h-9z" fill="#737373"/><path d="m60 48h-56c-1.105 0-2-.895-2-2v-6h60v6c0 1.105-.895 2-2 2z" fill="#737373"/><path d="m59 46v-6h-57v6c0 1.105.895 2 2 2h53c1.105 0 2-.895 2-2z" fill="#999"/><path d="m62 40h-60v-26c0-1.105.895-2 2-2h56c1.105 0 2 .895 2 2z" fill="#5396bb"/><path d="m57 12h-53c-1.105 0-2 .895-2 2v26h57v-26c0-1.105-.895-2-2-2z" fill="#6ec8fa"/><path d="m6 32h26v4h-26z" fill="#92826f"/><path d="m6 32h23v4h-23z" fill="#c3ad94"/><path d="m6 16h52v12h-52z" fill="#92826f"/><path d="m6 16h49v12h-49z" fill="#c3ad94"/><path d="m42 14v-4h-2.262c-.178-.691-.442-1.346-.787-1.951l2.049-2.049-3-3-2.049 2.049c-.605-.345-1.26-.609-1.951-.787v-2.262h-4v2.262c-.691.178-1.346.442-1.951.787l-2.049-2.049-3 3 2.049 2.049c-.345.605-.609 1.26-.787 1.951h-2.262v4h2.262c.178.691.442 1.346.787 1.951l-2.049 2.049 3 3 2.049-2.049c.605.345 1.26.609 1.951.787v2.262h4v-2.262c.691-.178 1.346-.442 1.951-.787l2.049 2.049 3-3-2.049-2.049c.345-.605.609-1.26.787-1.951z" fill="#999"/><g fill="#fff"><circle cx="32" cy="12" r="4"/><path d="m57 43h2v2h-2z"/><path d="m53 43h2v2h-2z"/><path d="m5 43h4v2h-4z"/><path d="m35 32h24"/><path d="m35 31h24v2h-24z"/><path d="m35 36h24"/><path d="m35 35h24v2h-24z"/></g></svg>